<svg xmlns="http://www.w3.org/2000/svg" width="22" height="19.05" viewBox="0 0 22 19.05"><path d="M17,19.05H3a3,3,0,0,1-3-3v-8a3,3,0,0,1,3-3H4.28l.319-1A3,3,0,0,1,7.44,2H13a1,1,0,1,1,0,2H7.49a1,1,0,0,0-.949.68L6,6.32A1,1,0,0,1,5.053,7H3A1,1,0,0,0,2,8v8a1,1,0,0,0,1,1H17a1,1,0,0,0,1-1V9a1,1,0,1,1,2,.05v7A3,3,0,0,1,17,19.05ZM10,15a4,4,0,1,1,4-4A4,4,0,0,1,10,15Zm0-6a2,2,0,1,0,2,2A2,2,0,0,0,10,9Zm9-3a1,1,0,0,1-1-1V4H17a1,1,0,1,1,0-2h1V1a1,1,0,0,1,2,0V2h1a1,1,0,1,1,0,2H20V5A1,1,0,0,1,19,6Z" transform="translate(0 0)" fill="#42526e"/></svg>