<svg xmlns="http://www.w3.org/2000/svg" width="20" height="17.05" viewBox="0 0 20 17.05"><path d="M17,17.05H3a3,3,0,0,1-3-3v-8a3,3,0,0,1,3-3H4.28l.319-1A3,3,0,0,1,7.44,0h5.131A3,3,0,0,1,15.4,2l.32,1H17a3,3,0,0,1,3,3.05v8A3,3,0,0,1,17,17.05ZM3,5A1,1,0,0,0,2,6v8a1,1,0,0,0,1,1H17a1,1,0,0,0,1-1V6a1,1,0,0,0-1-1H15a.994.994,0,0,1-.9-.68l-.54-1.64A1,1,0,0,0,12.612,2H7.49a1,1,0,0,0-.95.68L6,4.32A1,1,0,0,1,5.053,5H3Zm7,8a4,4,0,1,1,4-4A4,4,0,0,1,10,13Zm0-6a2,2,0,1,0,2,2A2,2,0,0,0,10,7Z" transform="translate(0 0)" fill="#42526e"/></svg>