<svg xmlns="http://www.w3.org/2000/svg" width="20.667" height="17.333" viewBox="0 0 20.667 17.333"><path d="M11.366,17.333H1.033a1.084,1.084,0,0,1,0-2.166H11.366a1.084,1.084,0,0,1,0,2.166ZM19.633,13H1.033a1.084,1.084,0,0,1,0-2.166h18.6a1.084,1.084,0,0,1,0,2.166Zm0-4.333H11.366a1.084,1.084,0,0,1,0-2.166h8.267a1.084,1.084,0,0,1,0,2.166Zm-12.4,0h-6.2A1.06,1.06,0,0,1,0,7.584v-6.5A1.06,1.06,0,0,1,1.033,0h6.2A1.06,1.06,0,0,1,8.267,1.083v6.5A1.06,1.06,0,0,1,7.234,8.667Zm-5.167-6.5V6.5H6.2V2.166ZM19.633,4.333H11.366A1.06,1.06,0,0,1,10.333,3.25a1.06,1.06,0,0,1,1.033-1.083h8.267A1.06,1.06,0,0,1,20.667,3.25,1.06,1.06,0,0,1,19.633,4.333Z" fill="#172b4d"/></svg>