<svg xmlns="http://www.w3.org/2000/svg" width="16" height="20" viewBox="0 0 16 20"><path d="M13,20H3a3,3,0,0,1-3-3V14a1,1,0,1,1,2,0v3a1,1,0,0,0,1,1H13a1,1,0,0,0,1-1V3a1,1,0,0,0-1-1H3A1,1,0,0,0,2,3V6A1,1,0,0,1,0,6V3A3,3,0,0,1,3,0H13a3,3,0,0,1,3,3V17A3,3,0,0,1,13,20ZM7,15.006a.992.992,0,0,1-.71-.3,1,1,0,0,1,0-1.419L8.59,11H1A1,1,0,1,1,1,9H8.59L6.29,6.71A1,1,0,1,1,7.71,5.29l4,4a.983.983,0,0,1,.21.33,1,1,0,0,1,0,.76.983.983,0,0,1-.21.33l-4,4A.992.992,0,0,1,7,15.006Z" transform="translate(0 0)" fill="#42526e"/></svg>