<svg xmlns="http://www.w3.org/2000/svg" width="46.008" height="46.008" viewBox="0 0 46.008 46.008">
  <g id="Group_56215" data-name="Group 56215" transform="translate(-277.523 -226.5)">
    <g id="Group_56219" data-name="Group 56219" transform="translate(288.092 231.841)">
      <g id="Group_56218" data-name="Group 56218" transform="translate(0 0)">
        <g id="Group_56217" data-name="Group 56217">
          <g id="Group_56216" data-name="Group 56216">
            <g id="Group_56215-2" data-name="Group 56215">
              <path id="Path_39973" data-name="Path 39973" d="M415.75,306.229h-1.521a3.668,3.668,0,0,1-2.876-1.38l-1.884-2.35a10.684,10.684,0,0,1-2.3-4.382l-.152-1.193a5.614,5.614,0,0,0-.549-1.8l-.148-.295a7.251,7.251,0,0,1-.762-3.226v-4.943a9.659,9.659,0,0,1,19.319,0v4.723a7.221,7.221,0,0,1-.982,3.634,5.6,5.6,0,0,0-.721,2.124l-.125.981a10.633,10.633,0,0,1-2.439,4.55l-.009.01-2.126,2.344A3.692,3.692,0,0,1,415.75,306.229Zm-.527-27.647a8.082,8.082,0,0,0-8.073,8.073V291.6a5.656,5.656,0,0,0,.594,2.516l.148.295a7.2,7.2,0,0,1,.7,2.314l.152,1.193a9.566,9.566,0,0,0,1.949,3.577l.008.009,1.888,2.355a2.089,2.089,0,0,0,1.638.786h1.521a2.1,2.1,0,0,0,1.555-.689l2.121-2.339a9.216,9.216,0,0,0,2.053-3.7l.125-.981a7.176,7.176,0,0,1,.925-2.723,5.634,5.634,0,0,0,.766-2.835v-4.723A8.082,8.082,0,0,0,415.222,278.581Z" transform="translate(-402.59 -276.995)" fill="#018ffa"/>
              <path id="Path_39974" data-name="Path 39974" d="M378.246,521.3a.793.793,0,0,1-.383-1.489l5.792-3.182.448-5.215a.793.793,0,0,1,1.581.136l-.485,5.638a.793.793,0,0,1-.408.627l-6.164,3.386A.79.79,0,0,1,378.246,521.3Z" transform="translate(-377.452 -485.969)" fill="#018ffa"/>
              <path id="Path_39975" data-name="Path 39975" d="M542.17,521.3a.79.79,0,0,1-.381-.1l-6.164-3.386a.793.793,0,0,1-.408-.627l-.485-5.638a.793.793,0,0,1,1.581-.136l.448,5.215,5.792,3.182a.793.793,0,0,1-.383,1.489Z" transform="translate(-518.095 -485.969)" fill="#018ffa"/>
            </g>
          </g>
        </g>
      </g>
    </g>
    <g id="Group_56220" data-name="Group 56220" transform="translate(277.523 226.5)">
      <path id="Path_39976" data-name="Path 39976" d="M633.712,583.483h-7.641a.793.793,0,1,1,0-1.586h6.848v-6.848a.793.793,0,1,1,1.586,0v7.641A.793.793,0,0,1,633.712,583.483Z" transform="translate(-588.498 -537.475)" fill="#018ffa"/>
      <path id="Path_39977" data-name="Path 39977" d="M285.957,583.483h-7.641a.793.793,0,0,1-.793-.793v-7.641a.793.793,0,1,1,1.586,0V581.9h6.848a.793.793,0,1,1,0,1.586Z" transform="translate(-277.523 -537.475)" fill="#018ffa"/>
      <path id="Path_39978" data-name="Path 39978" d="M278.316,235.727a.793.793,0,0,1-.793-.793v-7.641a.793.793,0,0,1,.793-.793h7.641a.793.793,0,1,1,0,1.586h-6.848v6.848A.793.793,0,0,1,278.316,235.727Z" transform="translate(-277.523 -226.5)" fill="#018ffa"/>
      <path id="Path_39979" data-name="Path 39979" d="M633.712,235.727a.793.793,0,0,1-.793-.793v-6.848h-6.848a.793.793,0,1,1,0-1.586h7.641a.793.793,0,0,1,.793.793v7.641A.793.793,0,0,1,633.712,235.727Z" transform="translate(-588.498 -226.5)" fill="#018ffa"/>
    </g>
  </g>
</svg>
