<svg id="Group_56221" data-name="Group 56221" xmlns="http://www.w3.org/2000/svg" width="46.051" height="46.051" viewBox="0 0 46.051 46.051">
  <g id="Group_56223" data-name="Group 56223">
    <g id="Group_56222" data-name="Group 56222">
      <g id="Group_56221-2" data-name="Group 56221">
        <path id="Path_39980" data-name="Path 39980" d="M1874.122,491.564h7.648a.794.794,0,0,0,0-1.588h-6.854v-6.854a.794.794,0,0,0-1.588,0v7.648A.794.794,0,0,0,1874.122,491.564Z" transform="translate(-1873.328 -445.513)" fill="#018ffa"/>
        <path id="Path_39981" data-name="Path 39981" d="M1771.794,491.564h7.648a.794.794,0,0,0,.794-.794v-7.648a.794.794,0,1,0-1.588,0v6.854h-6.854a.794.794,0,0,0,0,1.588Z" transform="translate(-1734.185 -445.513)" fill="#018ffa"/>
        <path id="Path_39982" data-name="Path 39982" d="M1779.442,389.236a.794.794,0,0,0,.794-.794v-7.648a.794.794,0,0,0-.794-.794h-7.648a.794.794,0,0,0,0,1.588h6.854v6.854A.794.794,0,0,0,1779.442,389.236Z" transform="translate(-1734.185 -380)" fill="#018ffa"/>
        <path id="Path_39983" data-name="Path 39983" d="M1874.122,389.236a.794.794,0,0,0,.794-.794v-6.854h6.854a.794.794,0,0,0,0-1.588h-7.648a.794.794,0,0,0-.794.794v7.648A.794.794,0,0,0,1874.122,389.236Z" transform="translate(-1873.328 -380)" fill="#018ffa"/>
      </g>
    </g>
  </g>
  <g id="Group_56225" data-name="Group 56225" transform="translate(8.594 6.134)">
    <g id="Group_56224" data-name="Group 56224">
      <path id="Path_39984" data-name="Path 39984" d="M1827.747,431.62a.794.794,0,0,0,.664-1.229l-3.55-5.429a5.656,5.656,0,0,1-.423-3.086l.432-3.018a5.482,5.482,0,0,1,.525-1.838c.846-1.59,3.477-7.17,1.837-12.214a10.744,10.744,0,0,0-5.889-6.341c-4.068-1.981-8.208-1.884-11.659.273s-5.277,5.711-5.277,8.093c0,3.572-.371,4.63-1.648,6.414a.769.769,0,0,0-.048.075,2.266,2.266,0,0,0-.08,2.183,1.69,1.69,0,0,0,1.066.7l-.49,1.017a.794.794,0,0,0,.291,1.016l.818.517-.368.353a.794.794,0,0,0-.023,1.122l1.116,1.162a3.1,3.1,0,0,0,.52,3c1.491,1.831,6.052,1.758,10.82-1.553a.794.794,0,1,0-.906-1.3c-4.275,2.969-7.925,2.785-8.683,1.855a1.621,1.621,0,0,1-.13-1.782.786.786,0,0,0-.117-.943l-.925-.964.526-.505a.794.794,0,0,0-.126-1.244l-1.077-.68.706-1.467a.794.794,0,0,0-.8-1.134,1.667,1.667,0,0,1-.892-.05,1.141,1.141,0,0,1,.126-.493c1.636-2.3,1.914-3.85,1.914-7.3,0-1.924,1.695-4.974,4.531-6.747,2.1-1.314,5.562-2.413,10.122-.192a9.219,9.219,0,0,1,5.074,5.4c1.447,4.449-.958,9.527-1.729,10.978a7.134,7.134,0,0,0-.7,2.358l-.433,3.018a7.242,7.242,0,0,0,.572,4.02.763.763,0,0,0,.059.107l3.585,5.482A.794.794,0,0,0,1827.747,431.62Z" transform="translate(-1802.369 -397.048)" fill="#018ffa"/>
      <path id="Path_39985" data-name="Path 39985" d="M1843.08,478.8a.791.791,0,0,0,.547-.219,22.821,22.821,0,0,0,1.6-1.716c1.224-1.468,1.662-2.472,1.421-3.253l-.712-2.31a.794.794,0,0,0-1.518.468l.7,2.286c-.007.484-1.233,2.081-2.591,3.375a.794.794,0,0,0,.548,1.369Zm2.044-4.757" transform="translate(-1834.902 -444.231)" fill="#018ffa"/>
      <path id="Path_39986" data-name="Path 39986" d="M1861.05,456.337h.021l1.322-.035a.794.794,0,0,0-.042-1.588l-1.321.035a.794.794,0,0,0,.02,1.588Z" transform="translate(-1857.821 -433.968)" fill="#018ffa"/>
      <path id="Path_39987" data-name="Path 39987" d="M1863.33,447.091a.814.814,0,0,0,.193-.024l1.163-.29a.794.794,0,0,0-.384-1.541l-1.163.29a.794.794,0,0,0,.192,1.565Z" transform="translate(-1860.762 -427.884)" fill="#018ffa"/>
    </g>
  </g>
</svg>
