<svg id="Main_1" xmlns="http://www.w3.org/2000/svg" width="36.759" height="48.242" viewBox="0 0 36.759 48.242">
  <path id="Path_69" data-name="Path 69" d="M34.892,44.155a2.609,2.609,0,0,1-2.185,4.086H22.61a2.664,2.664,0,0,1-1.809-.7v-.005l-.98-1.286L13.73,37.593a7.471,7.471,0,0,1,1.345-10.148L21.209,22.3l3.843,4.17V9.425L9.376,9.451l3.515,3.817L3.5,21.138a2.14,2.14,0,0,1-2.765-.008A2.038,2.038,0,0,1,0,19.547V2.609A2.63,2.63,0,0,1,2.649,0H15C28.366,0,36.759,6.823,36.759,17.851a15.989,15.989,0,0,1-9.582,15.228Z" transform="translate(0)" fill="#fff"/>
</svg>
