<svg id="Group_56226" data-name="Group 56226" xmlns="http://www.w3.org/2000/svg" width="46.051" height="46.051" viewBox="0 0 46.051 46.051">
  <g id="Group_56223" data-name="Group 56223" transform="translate(0 0)">
    <g id="Group_56222" data-name="Group 56222">
      <g id="Group_56221" data-name="Group 56221">
        <path id="Path_39980" data-name="Path 39980" d="M1881.77,491.564h-7.648a.794.794,0,0,1,0-1.588h6.854v-6.854a.794.794,0,0,1,1.588,0v7.648A.794.794,0,0,1,1881.77,491.564Z" transform="translate(-1836.513 -445.513)" fill="#018ffa"/>
        <path id="Path_39981" data-name="Path 39981" d="M1779.442,491.564h-7.648a.794.794,0,0,1-.794-.794v-7.648a.794.794,0,1,1,1.588,0v6.854h6.854a.794.794,0,0,1,0,1.588Z" transform="translate(-1771 -445.513)" fill="#018ffa"/>
        <path id="Path_39982" data-name="Path 39982" d="M1771.794,389.236a.794.794,0,0,1-.794-.794v-7.648a.794.794,0,0,1,.794-.794h7.648a.794.794,0,0,1,0,1.588h-6.854v6.854A.794.794,0,0,1,1771.794,389.236Z" transform="translate(-1771 -380)" fill="#018ffa"/>
        <path id="Path_39983" data-name="Path 39983" d="M1881.77,389.236a.794.794,0,0,1-.794-.794v-6.854h-6.854a.794.794,0,0,1,0-1.588h7.648a.794.794,0,0,1,.794.794v7.648A.794.794,0,0,1,1881.77,389.236Z" transform="translate(-1836.513 -380)" fill="#018ffa"/>
      </g>
    </g>
  </g>
  <g id="Group_56225" data-name="Group 56225" transform="translate(11.286 6.134)">
    <g id="Group_56224" data-name="Group 56224">
      <path id="Path_39984" data-name="Path 39984" d="M1803.162,431.62a.794.794,0,0,1-.664-1.229l3.55-5.429a5.656,5.656,0,0,0,.423-3.086l-.432-3.018a5.482,5.482,0,0,0-.525-1.838c-.846-1.59-3.477-7.17-1.837-12.214a10.744,10.744,0,0,1,5.889-6.341c4.068-1.981,8.208-1.884,11.659.273s5.277,5.711,5.277,8.093c0,3.572.371,4.63,1.648,6.414a.769.769,0,0,1,.048.075,2.266,2.266,0,0,1,.08,2.183,1.69,1.69,0,0,1-1.066.7l.49,1.017a.794.794,0,0,1-.291,1.016l-.818.517.368.353a.794.794,0,0,1,.023,1.122l-1.116,1.162a3.1,3.1,0,0,1-.52,3c-1.491,1.831-6.052,1.758-10.82-1.553a.794.794,0,1,1,.906-1.3c4.275,2.969,7.925,2.785,8.683,1.855a1.621,1.621,0,0,0,.13-1.782.786.786,0,0,1,.117-.943l.925-.964-.526-.505a.794.794,0,0,1,.126-1.244l1.077-.68-.706-1.467a.794.794,0,0,1,.8-1.134,1.667,1.667,0,0,0,.892-.05,1.141,1.141,0,0,0-.126-.493c-1.636-2.3-1.914-3.85-1.914-7.3,0-1.924-1.695-4.974-4.531-6.747-2.1-1.314-5.562-2.413-10.122-.192a9.219,9.219,0,0,0-5.074,5.4c-1.447,4.449.958,9.527,1.729,10.978a7.134,7.134,0,0,1,.7,2.358l.433,3.018a7.242,7.242,0,0,1-.572,4.02.763.763,0,0,1-.059.107l-3.585,5.482A.794.794,0,0,1,1803.162,431.62Z" transform="translate(-1802.369 -397.048)" fill="#018ffa"/>
      <path id="Path_39985" data-name="Path 39985" d="M1845.918,478.8a.791.791,0,0,1-.547-.219,22.821,22.821,0,0,1-1.6-1.716c-1.224-1.468-1.662-2.472-1.421-3.253l.712-2.31a.794.794,0,0,1,1.518.468l-.7,2.286c.007.484,1.233,2.081,2.591,3.375a.794.794,0,0,1-.548,1.369Zm-2.044-4.757" transform="translate(-1827.924 -444.231)" fill="#018ffa"/>
      <path id="Path_39986" data-name="Path 39986" d="M1862.372,456.337h-.021l-1.322-.035a.794.794,0,0,1,.042-1.588l1.321.035a.794.794,0,0,1-.02,1.588Z" transform="translate(-1839.43 -433.968)" fill="#018ffa"/>
      <path id="Path_39987" data-name="Path 39987" d="M1864.493,447.091a.814.814,0,0,1-.193-.024l-1.163-.29a.794.794,0,0,1,.384-1.541l1.163.29a.794.794,0,0,1-.192,1.565Z" transform="translate(-1840.889 -427.884)" fill="#018ffa"/>
    </g>
  </g>
</svg>
