  <svg xmlns="http://www.w3.org/2000/svg" xmlns:xlink="http://www.w3.org/1999/xlink" width="110" height="118" viewBox="0 0 58 58">
  <path id="Path_39976" data-name="Path 39976" d="M8.066,12.254.757,4.946,3.946,1.757l7.307,7.309H45.608a2.254,2.254,0,0,1,2.159,2.9L42.358,30A2.254,2.254,0,0,1,40.2,31.606H12.574v4.508H37.368v4.508H10.32a2.254,2.254,0,0,1-2.254-2.254Zm4.508,1.321V27.1H38.522l4.057-13.524ZM11.447,49.637a3.381,3.381,0,1,1,3.381-3.381A3.381,3.381,0,0,1,11.447,49.637Zm27.047,0a3.381,3.381,0,1,1,3.381-3.381A3.381,3.381,0,0,1,38.494,49.637Z" transform="translate(-0.757 -1.757)" fill="#000" />
</svg>