<svg xmlns="http://www.w3.org/2000/svg" width="20.002" height="17" viewBox="0 0 20.002 17"><path d="M15,17a1,1,0,0,1-1-1A6,6,0,0,0,2,16a1,1,0,1,1-2,0A8.014,8.014,0,0,1,4.7,8.72,4.918,4.918,0,0,1,3,5,5,5,0,1,1,13,5a4.917,4.917,0,0,1-1.7,3.72A8.018,8.018,0,0,1,16,16,1,1,0,0,1,15,17ZM8,2a3,3,0,1,0,3,3A3,3,0,0,0,8,2Zm8.3,8.041a1,1,0,0,1-.705-.291L14.25,8.41A1,1,0,0,1,14.25,7a1,1,0,0,1,1.42,0l.62.63,2-2a1,1,0,0,1,1.42,0,1,1,0,0,1-.04,1.45L17,9.75A.993.993,0,0,1,16.3,10.041Z" transform="translate(0 0)" fill="#42526e"/></svg>